<?xml version="1.0" standalone="no"?>
<!DOCTYPE svg PUBLIC "-//W3C//DTD SVG 20010904//EN"
 "http://www.w3.org/TR/2001/REC-SVG-20010904/DTD/svg10.dtd">
<svg version="1.0" xmlns="http://www.w3.org/2000/svg"
 width="500.000000pt" height="500.000000pt" viewBox="0 0 500.000000 500.000000"
 preserveAspectRatio="xMidYMid meet">
<metadata>
Created by potrace 1.14, written by Peter Selinger 2001-2017
</metadata>
<g transform="translate(0.000000,500.000000) scale(0.100000,-0.100000)"
fill="#000000" stroke="none">
<path d="M2440 4471 c-53 -28 -108 -61 -730 -431 -206 -123 -384 -228 -395
-234 -11 -6 -31 -19 -45 -27 -14 -9 -197 -119 -408 -244 -391 -233 -404 -242
-416 -308 -6 -35 13 -92 38 -116 19 -17 228 -137 986 -566 118 -67 238 -135
266 -151 29 -16 202 -114 385 -219 299 -170 339 -190 379 -190 40 1 80 21 355
179 442 256 478 276 480 276 2 0 32 17 66 38 35 21 89 52 119 69 30 17 111 63
180 103 69 40 141 81 160 92 80 46 518 297 550 316 19 12 50 29 68 38 50 26
82 73 82 123 0 73 -25 104 -130 163 -25 14 -344 202 -710 418 -366 216 -680
401 -699 412 -19 11 -121 71 -226 133 -106 62 -206 120 -223 129 -41 21 -89
20 -132 -3z m216 -364 c77 -46 191 -113 254 -150 63 -38 122 -72 130 -77 21
-13 275 -162 326 -191 167 -96 784 -462 782 -464 -2 -1 -174 -101 -383 -220
-209 -120 -575 -331 -814 -468 -239 -137 -440 -251 -446 -253 -6 -3 -96 44
-201 104 -104 60 -197 111 -204 115 -8 4 -22 11 -30 17 -20 13 -312 180 -316
180 -1 0 -68 38 -149 85 -80 47 -148 85 -149 85 -2 0 -75 41 -162 91 -88 51
-175 101 -194 111 -163 92 -231 131 -234 137 -4 5 429 267 659 399 16 9 34 21
40 25 5 4 57 35 115 68 58 34 121 71 140 84 19 12 91 55 160 95 69 40 139 82
155 92 93 59 362 216 371 217 6 1 74 -36 150 -82z"/>
<path d="M4395 2593 c-18 -5 -217 -117 -665 -375 -219 -126 -635 -365 -685
-393 -22 -13 -154 -89 -294 -169 l-254 -146 -36 21 c-20 12 -56 33 -81 47 -25
14 -74 42 -110 62 -36 21 -148 85 -250 143 -102 57 -266 151 -365 207 -99 56
-200 114 -225 128 -62 34 -338 191 -375 212 -205 118 -365 208 -376 214 -8 4
-25 13 -39 21 -49 29 -118 16 -163 -29 -53 -52 -44 -155 16 -199 18 -13 111
-68 207 -122 249 -140 572 -324 590 -335 8 -5 47 -27 85 -48 39 -22 183 -103
320 -182 138 -78 270 -154 295 -168 25 -13 74 -42 110 -62 36 -20 85 -48 110
-62 25 -14 85 -48 134 -76 139 -81 172 -84 269 -22 26 16 49 30 52 30 2 0 38
20 79 45 42 25 79 45 81 45 3 0 22 11 43 23 28 18 681 394 962 555 429 244
686 396 701 413 23 27 33 78 25 123 -7 38 -65 96 -96 96 -10 0 -24 2 -32 4 -7
2 -22 1 -33 -1z"/>
<path d="M4387 1823 c-10 -2 -150 -80 -310 -172 -161 -92 -510 -293 -777 -446
-267 -153 -554 -318 -639 -367 -84 -48 -158 -88 -163 -88 -8 0 -109 56 -753
422 -159 91 -310 176 -335 190 -25 14 -139 79 -255 145 -115 66 -237 135 -270
153 -33 18 -72 41 -87 51 -14 11 -28 19 -31 19 -3 0 -36 18 -74 39 -83 48
-118 54 -171 31 -105 -47 -108 -187 -6 -245 21 -12 170 -97 329 -188 1494
-851 1600 -910 1645 -914 43 -4 57 2 265 122 121 70 240 138 265 152 44 25
423 242 487 279 17 11 92 53 165 95 73 42 165 95 205 117 39 23 87 50 105 61
18 10 71 41 118 68 47 27 92 52 100 56 72 34 317 187 332 207 42 58 27 149
-32 192 -27 20 -83 30 -113 21z"/>
</g>
</svg>
