<svg data-v-fde0c5aa="" xmlns="http://www.w3.org/2000/svg" viewBox="0 0 300 300" class="iconLeft"><!----><defs data-v-fde0c5aa=""><!----></defs><rect data-v-fde0c5aa="" fill="transparent" x="0" y="0" width="300px" height="300px" class="logo-background-square"></rect><defs data-v-fde0c5aa=""><!----></defs><g data-v-fde0c5aa="" id="46138c3e-92d5-4edf-a191-dfd5fe162809" fill="#eaeaea" transform="matrix(2.452435127256957,0,0,2.452435127256957,88.15787664388371,130.42956822241908)"><path d="M8.76 3.78L8.76 13.02L7.38 13.02L3.51 6.83L2.53 5.01L2.52 5.01L2.58 6.50L2.58 13.02L1.51 13.02L1.51 3.78L2.90 3.78L6.75 9.94L7.74 11.79L7.76 11.79L7.70 10.30L7.70 3.78L8.76 3.78ZM17.46 9.16L17.46 9.16Q17.46 9.55 17.40 9.94L17.40 9.94L12.12 9.94L12.12 9.94Q12.22 11.00 12.83 11.59L12.83 11.59L12.83 11.59Q13.44 12.18 14.41 12.18L14.41 12.18L14.41 12.18Q15.18 12.18 15.69 11.91L15.69 11.91L15.69 11.91Q16.20 11.65 16.38 11.14L16.38 11.14L17.32 11.63L17.32 11.63Q16.90 12.38 16.20 12.77L16.20 12.77L16.20 12.77Q15.50 13.16 14.41 13.16L14.41 13.16L14.41 13.16Q12.82 13.16 11.92 12.19L11.92 12.19L11.92 12.19Q11.02 11.23 11.02 9.52L11.02 9.52L11.02 9.52Q11.02 7.81 11.88 6.85L11.88 6.85L11.88 6.85Q12.74 5.88 14.32 5.88L14.32 5.88L14.32 5.88Q15.30 5.88 16.02 6.31L16.02 6.31L16.02 6.31Q16.73 6.75 17.09 7.49L17.09 7.49L17.09 7.49Q17.46 8.23 17.46 9.16L17.46 9.16ZM14.32 6.86L14.32 6.86Q13.40 6.86 12.83 7.41L12.83 7.41L12.83 7.41Q12.26 7.95 12.14 8.95L12.14 8.95L16.38 8.95L16.38 8.95Q16.27 7.97 15.74 7.41L15.74 7.41L15.74 7.41Q15.20 6.86 14.32 6.86L14.32 6.86ZM25.33 12.21L25.33 12.21Q25.61 12.21 25.89 12.14L25.89 12.14L25.82 13.02L25.82 13.02Q25.42 13.16 24.98 13.16L24.98 13.16L24.98 13.16Q24.43 13.16 24.11 12.92L24.11 12.92L24.11 12.92Q23.80 12.68 23.72 12.12L23.72 12.12L23.72 12.12Q23.39 12.61 22.77 12.89L22.77 12.89L22.77 12.89Q22.15 13.16 21.46 13.16L21.46 13.16L21.46 13.16Q20.43 13.16 19.75 12.68L19.75 12.68L19.75 12.68Q19.08 12.19 19.08 11.28L19.08 11.28L19.08 11.28Q19.08 10.49 19.78 9.90L19.78 9.90L19.78 9.90Q20.48 9.32 21.81 9.10L21.81 9.10L23.67 8.79L23.67 8.40L23.67 8.40Q23.67 7.70 23.24 7.28L23.24 7.28L23.24 7.28Q22.81 6.86 22.04 6.86L22.04 6.86L22.04 6.86Q21.34 6.86 20.82 7.20L20.82 7.20L20.82 7.20Q20.31 7.53 20.03 8.19L20.03 8.19L19.21 7.59L19.21 7.59Q19.49 6.80 20.25 6.34L20.25 6.34L20.25 6.34Q21.01 5.88 22.04 5.88L22.04 5.88L22.04 5.88Q23.28 5.88 24.04 6.48L24.04 6.48L24.04 6.48Q24.79 7.08 24.79 8.26L24.79 8.26L24.79 11.70L24.79 11.70Q24.79 11.96 24.92 12.08L24.92 12.08L24.92 12.08Q25.05 12.21 25.33 12.21L25.33 12.21ZM21.52 12.18L21.52 12.18Q22.40 12.18 23.04 11.76L23.04 11.76L23.04 11.76Q23.67 11.34 23.67 10.67L23.67 10.67L23.67 9.70L22.11 10.00L22.11 10.00Q21.17 10.16 20.71 10.48L20.71 10.48L20.71 10.48Q20.24 10.79 20.24 11.28L20.24 11.28L20.24 11.28Q20.24 11.72 20.58 11.95L20.58 11.95L20.58 11.95Q20.92 12.18 21.52 12.18L21.52 12.18ZM31.12 11.59L31.51 12.53L31.51 12.53Q30.81 13.16 29.71 13.16L29.71 13.16L29.71 13.16Q28.85 13.16 28.31 12.70L28.31 12.70L28.31 12.70Q27.78 12.24 27.76 11.28L27.76 11.28L27.76 6.99L26.36 6.99L26.36 6.02L27.76 6.02L27.76 4.34L28.88 4.03L28.88 6.02L31.47 6.02L31.47 6.99L28.88 6.99L28.88 11.09L28.88 11.09Q28.88 11.59 29.17 11.85L29.17 11.85L29.17 11.85Q29.46 12.11 29.93 12.11L29.93 12.11L29.93 12.11Q30.60 12.11 31.12 11.59L31.12 11.59ZM36.27 3.64L36.27 3.64Q38.75 3.64 39.84 5.60L39.84 5.60L38.88 6.38L38.88 6.38Q38.46 5.46 37.88 5.07L37.88 5.07L37.88 5.07Q37.30 4.69 36.29 4.69L36.29 4.69L36.29 4.69Q35.22 4.69 34.61 5.13L34.61 5.13L34.61 5.13Q34.01 5.57 34.01 6.26L34.01 6.26L34.01 6.26Q34.01 6.71 34.24 7.00L34.24 7.00L34.24 7.00Q34.48 7.29 35.03 7.51L35.03 7.51L35.03 7.51Q35.59 7.73 36.57 7.90L36.57 7.90L36.57 7.90Q38.40 8.20 39.16 8.82L39.16 8.82L39.16 8.82Q39.93 9.44 39.93 10.53L39.93 10.53L39.93 10.53Q39.93 11.31 39.49 11.91L39.49 11.91L39.49 11.91Q39.05 12.50 38.23 12.83L38.23 12.83L38.23 12.83Q37.42 13.16 36.36 13.16L36.36 13.16L36.36 13.16Q34.96 13.16 33.97 12.61L33.97 12.61L33.97 12.61Q32.98 12.07 32.47 11.16L32.47 11.16L33.43 10.37L33.43 10.37Q33.81 11.20 34.54 11.65L34.54 11.65L34.54 11.65Q35.28 12.11 36.39 12.11L36.39 12.11L36.39 12.11Q37.48 12.11 38.12 11.71L38.12 11.71L38.12 11.71Q38.77 11.31 38.77 10.58L38.77 10.58L38.77 10.58Q38.77 9.97 38.21 9.60L38.21 9.60L38.21 9.60Q37.65 9.24 36.22 8.99L36.22 8.99L36.22 8.99Q34.37 8.67 33.60 8.06L33.60 8.06L33.60 8.06Q32.83 7.46 32.83 6.38L32.83 6.38L32.83 6.38Q32.83 5.64 33.25 5.01L33.25 5.01L33.25 5.01Q33.67 4.38 34.45 4.01L34.45 4.01L34.45 4.01Q35.24 3.64 36.27 3.64L36.27 3.64ZM45.96 11.59L46.35 12.53L46.35 12.53Q45.65 13.16 44.55 13.16L44.55 13.16L44.55 13.16Q43.69 13.16 43.16 12.70L43.16 12.70L43.16 12.70Q42.62 12.24 42.60 11.28L42.60 11.28L42.60 6.99L41.20 6.99L41.20 6.02L42.60 6.02L42.60 4.34L43.72 4.03L43.72 6.02L46.31 6.02L46.31 6.99L43.72 6.99L43.72 11.09L43.72 11.09Q43.72 11.59 44.01 11.85L44.01 11.85L44.01 11.85Q44.30 12.11 44.77 12.11L44.77 12.11L44.77 12.11Q45.44 12.11 45.96 11.59L45.96 11.59ZM53.68 12.21L53.68 12.21Q53.96 12.21 54.24 12.14L54.24 12.14L54.17 13.02L54.17 13.02Q53.77 13.16 53.33 13.16L53.33 13.16L53.33 13.16Q52.78 13.16 52.47 12.92L52.47 12.92L52.47 12.92Q52.15 12.68 52.07 12.12L52.07 12.12L52.07 12.12Q51.74 12.61 51.12 12.89L51.12 12.89L51.12 12.89Q50.50 13.16 49.81 13.16L49.81 13.16L49.81 13.16Q48.78 13.16 48.10 12.68L48.10 12.68L48.10 12.68Q47.43 12.19 47.43 11.28L47.43 11.28L47.43 11.28Q47.43 10.49 48.13 9.90L48.13 9.90L48.13 9.90Q48.83 9.32 50.16 9.10L50.16 9.10L52.02 8.79L52.02 8.40L52.02 8.40Q52.02 7.70 51.59 7.28L51.59 7.28L51.59 7.28Q51.16 6.86 50.39 6.86L50.39 6.86L50.39 6.86Q49.69 6.86 49.17 7.20L49.17 7.20L49.17 7.20Q48.66 7.53 48.38 8.19L48.38 8.19L47.56 7.59L47.56 7.59Q47.84 6.80 48.60 6.34L48.60 6.34L48.60 6.34Q49.36 5.88 50.39 5.88L50.39 5.88L50.39 5.88Q51.63 5.88 52.39 6.48L52.39 6.48L52.39 6.48Q53.14 7.08 53.14 8.26L53.14 8.26L53.14 11.70L53.14 11.70Q53.14 11.96 53.27 12.08L53.27 12.08L53.27 12.08Q53.40 12.21 53.68 12.21L53.68 12.21ZM49.87 12.18L49.87 12.18Q50.75 12.18 51.39 11.76L51.39 11.76L51.39 11.76Q52.02 11.34 52.02 10.67L52.02 10.67L52.02 9.70L50.46 10.00L50.46 10.00Q49.52 10.16 49.06 10.48L49.06 10.48L49.06 10.48Q48.59 10.79 48.59 11.28L48.59 11.28L48.59 11.28Q48.59 11.72 48.93 11.95L48.93 11.95L48.93 11.95Q49.27 12.18 49.87 12.18L49.87 12.18ZM58.81 5.88L58.81 5.88Q59.86 5.88 60.59 6.36L60.59 6.36L60.59 6.36Q61.31 6.85 61.71 7.74L61.71 7.74L60.65 8.25L60.65 8.25Q60.20 6.86 58.79 6.86L58.79 6.86L58.79 6.86Q57.74 6.86 57.14 7.57L57.14 7.57L57.14 7.57Q56.55 8.27 56.55 9.52L56.55 9.52L56.55 9.52Q56.55 10.77 57.14 11.47L57.14 11.47L57.14 11.47Q57.74 12.18 58.79 12.18L58.79 12.18L58.79 12.18Q59.60 12.18 60.09 11.81L60.09 11.81L60.09 11.81Q60.59 11.44 60.75 10.74L60.75 10.74L61.78 11.10L61.78 11.10Q61.42 12.08 60.66 12.62L60.66 12.62L60.66 12.62Q59.91 13.16 58.81 13.16L58.81 13.16L58.81 13.16Q57.23 13.16 56.33 12.19L56.33 12.19L56.33 12.19Q55.43 11.23 55.43 9.52L55.43 9.52L55.43 9.52Q55.43 7.81 56.33 6.85L56.33 6.85L56.33 6.85Q57.23 5.88 58.81 5.88L58.81 5.88ZM68.71 13.02L66.36 9.56L64.88 11.05L64.88 13.02L63.76 13.02L63.76 2.80L64.88 2.80L64.88 9.65L68.50 6.02L69.90 6.02L67.17 8.75L70.07 13.02L68.71 13.02Z"></path></g><defs data-v-fde0c5aa=""><!----></defs><g data-v-fde0c5aa="" id="48539555-87c6-473e-a3ef-cf61c01c6c5b" stroke="none" fill="#699ea0" transform="matrix(0.4314185008069467,0,0,0.4314185008069467,37.87559191885245,128.4291685606019)"><path d="M49.896 60.677c-.512 0-1.023-.13-1.483-.392L6.522 36.486a3.002 3.002 0 0 1-.051-5.195l42.1-25.038a3.007 3.007 0 0 1 3.062-.007l41.889 24.676a3.004 3.004 0 0 1-.031 5.195l-42.098 24.16c-.463.267-.98.4-1.497.4zM13.985 33.813L49.89 54.211l36.127-20.733-35.904-21.15-36.128 21.485z"></path><path d="M49.896 77.431c-.512 0-1.023-.13-1.483-.392L6.522 53.241a3.006 3.006 0 1 1 2.967-5.226l40.4 22.95L90.498 47.66a3.004 3.004 0 1 1 2.991 5.212l-42.097 24.16a2.987 2.987 0 0 1-1.496.399z"></path><path d="M49.896 94.169c-.512 0-1.023-.13-1.483-.392L6.522 69.979a3.006 3.006 0 1 1 2.967-5.226l40.4 22.95 40.609-23.305a3.006 3.006 0 0 1 2.991 5.212L51.392 93.77a2.987 2.987 0 0 1-1.496.399z"></path></g><!----></svg>